<?xml version="1.0" standalone="no"?>
<!DOCTYPE svg PUBLIC "-//W3C//DTD SVG 20010904//EN"
 "http://www.w3.org/TR/2001/REC-SVG-20010904/DTD/svg10.dtd">
<svg version="1.0" xmlns="http://www.w3.org/2000/svg"
 width="512.000000pt" height="512.000000pt" viewBox="0 0 512.000000 512.000000"
 preserveAspectRatio="xMidYMid meet">

<g transform="translate(0.000000,512.000000) scale(0.100000,-0.100000)"
fill="#519ea3" stroke="none">
<path d="M782 5109 c-49 -14 -118 -88 -132 -141 -26 -95 14 -196 98 -245 44
-26 56 -28 184 -31 l138 -4 0 -603 0 -602 24 -95 c47 -185 159 -356 306 -467
53 -40 176 -108 374 -208 163 -81 296 -150 296 -153 0 -3 -133 -72 -296 -153
-198 -100 -321 -168 -374 -208 -147 -111 -259 -282 -306 -467 l-24 -95 0 -602
0 -603 -138 -4 c-128 -3 -140 -5 -184 -31 -84 -49 -124 -150 -98 -245 15 -56
80 -123 136 -140 60 -18 3488 -18 3548 0 57 17 119 82 135 141 27 95 -13 195
-97 244 -44 26 -56 28 -184 31 l-137 4 -4 627 c-3 564 -5 632 -21 686 -30 103
-100 237 -165 317 -97 120 -182 177 -515 345 -163 81 -296 150 -296 153 0 3
136 74 303 157 335 169 413 222 513 346 61 76 131 212 160 312 16 54 18 122
21 686 l4 627 137 4 c128 3 140 5 184 31 84 49 124 149 97 244 -16 59 -78 124
-135 141 -52 15 -3499 16 -3552 1z m2848 -949 l0 -530 -1070 0 -1070 0 0 530
0 530 1070 0 1070 0 0 -530z m-629 -2061 c369 -184 450 -228 494 -270 102 -96
135 -197 135 -416 l0 -133 -1070 0 -1070 0 0 128 c0 159 12 231 49 307 59 119
85 136 574 382 243 122 443 222 445 223 1 0 201 -99 443 -221z"/>
</g>
</svg>
