<svg width="24" height="25" viewBox="0 0 24 25" fill="none" xmlns="http://www.w3.org/2000/svg">
<path d="M8 2.15625V5.15625" stroke="#FF0000" stroke-miterlimit="10" stroke-linecap="round" stroke-linejoin="round"/>
<path d="M16 2.15625V5.15625" stroke="#FF0000" stroke-miterlimit="10" stroke-linecap="round" stroke-linejoin="round"/>
<path d="M3.5 9.24622H20.5" stroke="#292D32" stroke-miterlimit="10" stroke-linecap="round" stroke-linejoin="round"/>
<path d="M19.21 15.9263L15.6701 19.4663C15.5301 19.6063 15.4 19.8663 15.37 20.0563L15.18 21.4063C15.11 21.8963 15.45 22.2363 15.94 22.1663L17.29 21.9763C17.48 21.9463 17.75 21.8163 17.88 21.6763L21.4201 18.1363C22.0301 17.5263 22.3201 16.8163 21.4201 15.9163C20.5301 15.0263 19.82 15.3163 19.21 15.9263Z" stroke="#FF0000" stroke-miterlimit="10" stroke-linecap="round" stroke-linejoin="round"/>
<path d="M18.7002 16.4363C19.0002 17.5163 19.8402 18.3563 20.9202 18.6563" stroke="#FF0000" stroke-miterlimit="10" stroke-linecap="round" stroke-linejoin="round"/>
<path d="M12 22.1562H8C4.5 22.1562 3 20.1562 3 17.1562V8.65625C3 5.65625 4.5 3.65625 8 3.65625H16C19.5 3.65625 21 5.65625 21 8.65625V12.1562" stroke="#292D32" stroke-miterlimit="10" stroke-linecap="round" stroke-linejoin="round"/>
<path d="M11.9956 13.8563H12.0046" stroke="#FF0000" stroke-width="1.5" stroke-linecap="round" stroke-linejoin="round"/>
<path d="M8.29431 13.8563H8.30329" stroke="#FF0000" stroke-width="1.5" stroke-linecap="round" stroke-linejoin="round"/>
<path d="M8.29431 16.8563H8.30329" stroke="#FF0000" stroke-width="1.5" stroke-linecap="round" stroke-linejoin="round"/>
</svg>
